<svg xmlns="http://www.w3.org/2000/svg" viewBox="162.66 -230.46 1074.67 630.59" width="1075" height="631"><g fill="#141210"><path transform="translate(208.6632,0.0000) scale(0.154242,-0.154242)" d="M20 164H70V614H20V778H479Q604 778 674.0 727.0Q744 676 744 581Q744 522 716.0 481.5Q688 441 650.5 420.5Q613 400 578 393V383Q649 376 706.0 338.0Q763 300 763 202Q763 97 684.0 48.5Q605 0 479 0H20ZM404 450Q433 450 447.5 465.5Q462 481 462 514V550Q462 583 447.5 598.5Q433 614 404 614H350V450ZM411 164Q440 164 454.5 179.5Q469 195 469 228V272Q469 305 454.5 320.5Q440 336 411 336H350V164Z"/>
<path transform="translate(341.3111,0.0000) scale(0.154242,-0.154242)" d="M20 164H70V614H20V778H479Q608 778 676.0 725.0Q744 672 744 553Q744 486 717.0 437.0Q690 388 640 369L641 359Q737 344 737 241V164H784V0H467V235Q467 274 455.5 294.0Q444 314 419.5 321.0Q395 328 350 328V164H416V0H20ZM404 450Q433 450 447.5 465.5Q462 481 462 514V550Q462 583 447.5 598.5Q433 614 404 614H350V450Z"/>
<path transform="translate(477.8149,0.0000) scale(0.154242,-0.154242)" d="M754 164H794V0H402V164H462L446 244H310L294 164H354V0H12V164H52L221 778H585ZM332 350H424L383 549H373Z"/>
<path transform="translate(615.2442,0.0000) scale(0.154242,-0.154242)" d="M596 778H924V614H874V0H593L300 451V164H348V0H20V164H70V614H20V778H381L644 377V614H596Z"/>
<path transform="translate(773.6504,0.0000) scale(0.154242,-0.154242)" d="M20 164H70V613H20V778H426Q593 778 691.5 686.5Q790 595 790 389Q790 183 691.5 91.5Q593 0 426 0H20ZM408 164Q442 164 459.0 182.0Q476 200 476 238V540Q476 614 408 614H350V164Z"/>
<path transform="translate(910.7712,0.0000) scale(0.154242,-0.154242)" d="M14 389Q14 600 113.5 696.0Q213 792 396 792Q579 792 678.5 696.0Q778 600 778 389Q778 178 678.5 82.0Q579 -14 396 -14Q213 -14 113.5 82.0Q14 178 14 389ZM464 238V540Q464 578 447.0 596.0Q430 614 396 614Q362 614 345.0 596.0Q328 578 328 540V238Q328 199 345.0 181.5Q362 164 396 164Q430 164 447.0 182.0Q464 200 464 238Z"/>
<path transform="translate(1046.0411,0.0000) scale(0.154242,-0.154242)" d="M596 778H924V614H874V0H593L300 451V164H348V0H20V164H70V614H20V778H381L644 377V614H596Z"/>
<path transform="translate(273.2134,200.5141) scale(0.154242,-0.154242)" d="M820 614H770V164H820V0H442V164H490V329H350V164H398V0H20V164H70V614H20V778H398V614H350V462H490V614H442V778H820Z"/>
<path transform="translate(415.8869,200.5141) scale(0.154242,-0.154242)" d="M14 389Q14 600 113.5 696.0Q213 792 396 792Q579 792 678.5 696.0Q778 600 778 389Q778 178 678.5 82.0Q579 -14 396 -14Q213 -14 113.5 82.0Q14 178 14 389ZM464 238V540Q464 578 447.0 596.0Q430 614 396 614Q362 614 345.0 596.0Q328 578 328 540V238Q328 199 345.0 181.5Q362 164 396 164Q430 164 447.0 182.0Q464 200 464 238Z"/>
<path transform="translate(548.0720,200.5141) scale(0.154242,-0.154242)" d="M875 778H1195V614H1155L1006 0H707L616 432H606L510 0H211L52 614H12V778H382V614H344L383 359H393L488 778H776L864 359H874L913 614H875Z"/>
<path transform="translate(728.8432,200.5141) scale(0.154242,-0.154242)" d="M754 164H794V0H402V164H462L446 244H310L294 164H354V0H12V164H52L221 778H585ZM332 350H424L383 549H373Z"/>
<path transform="translate(866.2725,200.5141) scale(0.154242,-0.154242)" d="M20 164H70V614H20V778H479Q608 778 676.0 725.0Q744 672 744 553Q744 486 717.0 437.0Q690 388 640 369L641 359Q737 344 737 241V164H784V0H467V235Q467 274 455.5 294.0Q444 314 419.5 321.0Q395 328 350 328V164H416V0H20ZM404 450Q433 450 447.5 465.5Q462 481 462 514V550Q462 583 447.5 598.5Q433 614 404 614H350V450Z"/>
<path transform="translate(1002.7763,200.5141) scale(0.154242,-0.154242)" d="M20 164H70V613H20V778H426Q593 778 691.5 686.5Q790 595 790 389Q790 183 691.5 91.5Q593 0 426 0H20ZM408 164Q442 164 459.0 182.0Q476 200 476 238V540Q476 614 408 614H350V164Z"/>
<g transform="translate(0,-156.260)"><path transform="translate(643.8364,0.0000) scale(0.036247,-0.036247)" d="M766 536H594V614H530V164H600V0H180V164H250V614H186V536H14V778H766Z"/>
<path transform="translate(685.9906,0.0000) scale(0.036247,-0.036247)" d="M820 614H770V164H820V0H442V164H490V329H350V164H398V0H20V164H70V614H20V778H398V614H350V462H490V614H442V778H820Z"/>
<path transform="translate(730.3197,0.0000) scale(0.036247,-0.036247)" d="M20 0V164H70V614H20V778H695V476H471V614H350V456H438V342H350V164H471V322H695V0Z"/></g>
<rect x="208.66" y="-174.60" width="411.07" height="8.48"/>
<rect x="780.26" y="-174.60" width="411.07" height="8.48"/>
<g transform="translate(0,273.457)"><path transform="translate(618.8808,0.0000) scale(0.036247,-0.036247)" d="M20 164H70V614H20V778H479Q604 778 674.0 727.0Q744 676 744 581Q744 522 716.0 481.5Q688 441 650.5 420.5Q613 400 578 393V383Q649 376 706.0 338.0Q763 300 763 202Q763 97 684.0 48.5Q605 0 479 0H20ZM404 450Q433 450 447.5 465.5Q462 481 462 514V550Q462 583 447.5 598.5Q433 614 404 614H350V450ZM411 164Q440 164 454.5 179.5Q469 195 469 228V272Q469 305 454.5 320.5Q440 336 411 336H350V164Z"/>
<path transform="translate(660.8539,0.0000) scale(0.036247,-0.036247)" d="M754 164H794V0H402V164H462L446 244H310L294 164H354V0H12V164H52L221 778H585ZM332 350H424L383 549H373Z"/>
<path transform="translate(703.9505,0.0000) scale(0.036247,-0.036247)" d="M596 778H924V614H874V0H593L300 451V164H348V0H20V164H70V614H20V778H381L644 377V614H596Z"/>
<path transform="translate(751.9767,0.0000) scale(0.036247,-0.036247)" d="M20 164H70V613H20V778H426Q593 778 691.5 686.5Q790 595 790 389Q790 183 691.5 91.5Q593 0 426 0H20ZM408 164Q442 164 459.0 182.0Q476 200 476 238V540Q476 614 408 614H350V164Z"/></g>
<rect x="208.66" y="255.12" width="386.16" height="8.48"/>
<rect x="805.18" y="255.12" width="386.16" height="8.48"/>
<path transform="translate(295.6012,353.6630) scale(0.033162,-0.033162)" d="M596 778H924V614H874V0H593L300 451V164H348V0H20V164H70V614H20V778H381L644 377V614H596Z"/>
<path transform="translate(342.2639,353.6630) scale(0.033162,-0.033162)" d="M14 389Q14 600 113.5 696.0Q213 792 396 792Q579 792 678.5 696.0Q778 600 778 389Q778 178 678.5 82.0Q579 -14 396 -14Q213 -14 113.5 82.0Q14 178 14 389ZM464 238V540Q464 578 447.0 596.0Q430 614 396 614Q362 614 345.0 596.0Q328 578 328 540V238Q328 199 345.0 181.5Q362 164 396 164Q430 164 447.0 182.0Q464 200 464 238Z"/>
<path transform="translate(409.3251,353.6630) scale(0.033162,-0.033162)" d="M20 164H70V614H20V778H459Q588 778 656.0 722.5Q724 667 724 543Q724 419 656.0 363.5Q588 308 459 308H350V164H446V0H20ZM384 450Q442 450 442 514V550Q442 583 427.5 598.5Q413 614 384 614H350V450Z"/>
<path transform="translate(449.2228,353.6630) scale(0.033162,-0.033162)" d="M20 164H70V614H20V778H479Q608 778 676.0 725.0Q744 672 744 553Q744 486 717.0 437.0Q690 388 640 369L641 359Q737 344 737 241V164H784V0H467V235Q467 274 455.5 294.0Q444 314 419.5 321.0Q395 328 350 328V164H416V0H20ZM404 450Q433 450 447.5 465.5Q462 481 462 514V550Q462 583 447.5 598.5Q433 614 404 614H350V450Z"/>
<path transform="translate(491.1765,353.6630) scale(0.033162,-0.033162)" d="M20 0V164H70V614H20V778H695V476H471V614H350V456H438V342H350V164H471V322H695V0Z"/>
<path transform="translate(530.2451,353.6630) scale(0.033162,-0.033162)" d="M766 536H594V614H530V164H600V0H180V164H250V614H186V536H14V778H766Z"/>
<path transform="translate(571.5356,353.6630) scale(0.033162,-0.033162)" d="M766 536H594V614H530V164H600V0H180V164H250V614H186V536H14V778H766Z"/>
<path transform="translate(612.8261,353.6630) scale(0.033162,-0.033162)" d="M457 778H764V614H724L531 268V164H581V0H201V164H251V268L52 614H12V778H399V614H364L423 459H433L492 614H457Z"/>
<path transform="translate(679.3567,353.6630) scale(0.033162,-0.033162)" d="M20 164H70V614H20V778H479Q604 778 674.0 727.0Q744 676 744 581Q744 522 716.0 481.5Q688 441 650.5 420.5Q613 400 578 393V383Q649 376 706.0 338.0Q763 300 763 202Q763 97 684.0 48.5Q605 0 479 0H20ZM404 450Q433 450 447.5 465.5Q462 481 462 514V550Q462 583 447.5 598.5Q433 614 404 614H350V450ZM411 164Q440 164 454.5 179.5Q469 195 469 228V272Q469 305 454.5 320.5Q440 336 411 336H350V164Z"/>
<path transform="translate(720.4814,353.6630) scale(0.033162,-0.033162)" d="M14 389Q14 600 113.5 696.0Q213 792 396 792Q579 792 678.5 696.0Q778 600 778 389Q778 178 678.5 82.0Q579 -14 396 -14Q213 -14 113.5 82.0Q14 178 14 389ZM464 238V540Q464 578 447.0 596.0Q430 614 396 614Q362 614 345.0 596.0Q328 578 328 540V238Q328 199 345.0 181.5Q362 164 396 164Q430 164 447.0 182.0Q464 200 464 238Z"/>
<path transform="translate(761.1749,353.6630) scale(0.033162,-0.033162)" d="M457 778H764V614H724L531 268V164H581V0H201V164H251V268L52 614H12V778H399V614H364L423 459H433L492 614H457Z"/>
<path transform="translate(827.7055,353.6630) scale(0.033162,-0.033162)" d="M14 389Q14 792 406 792Q501 792 582.5 769.0Q664 746 704 718V468H464V540Q464 578 447.0 596.0Q430 614 396 614Q362 614 345.0 596.0Q328 578 328 540V238Q328 200 345.0 182.0Q362 164 396 164Q430 164 447.0 182.0Q464 200 464 238V319H704V60Q663 32 582.5 9.0Q502 -14 408 -14Q219 -14 116.5 82.0Q14 178 14 389Z"/>
<path transform="translate(867.0726,353.6630) scale(0.033162,-0.033162)" d="M14 389Q14 600 113.5 696.0Q213 792 396 792Q579 792 678.5 696.0Q778 600 778 389Q778 178 678.5 82.0Q579 -14 396 -14Q213 -14 113.5 82.0Q14 178 14 389ZM464 238V540Q464 578 447.0 596.0Q430 614 396 614Q362 614 345.0 596.0Q328 578 328 540V238Q328 199 345.0 181.5Q362 164 396 164Q430 164 447.0 182.0Q464 200 464 238Z"/>
<path transform="translate(908.7611,353.6630) scale(0.033162,-0.033162)" d="M66 279V614H16V778H386V614H346V228Q346 195 360.5 179.5Q375 164 404 164Q433 164 447.5 179.5Q462 195 462 228V614H422V778H765V614H715V279Q715 124 632.0 55.0Q549 -14 394 -14Q237 -14 151.5 55.0Q66 124 66 279Z"/>
<path transform="translate(950.0847,353.6630) scale(0.033162,-0.033162)" d="M596 778H924V614H874V0H593L300 451V164H348V0H20V164H70V614H20V778H381L644 377V614H596Z"/>
<path transform="translate(996.7474,353.6630) scale(0.033162,-0.033162)" d="M766 536H594V614H530V164H600V0H180V164H250V614H186V536H14V778H766Z"/>
<path transform="translate(1038.0379,353.6630) scale(0.033162,-0.033162)" d="M20 164H70V614H20V778H479Q608 778 676.0 725.0Q744 672 744 553Q744 486 717.0 437.0Q690 388 640 369L641 359Q737 344 737 241V164H784V0H467V235Q467 274 455.5 294.0Q444 314 419.5 321.0Q395 328 350 328V164H416V0H20ZM404 450Q433 450 447.5 465.5Q462 481 462 514V550Q462 583 447.5 598.5Q433 614 404 614H350V450Z"/>
<path transform="translate(1078.6652,353.6630) scale(0.033162,-0.033162)" d="M457 778H764V614H724L531 268V164H581V0H201V164H251V268L52 614H12V778H399V614H364L423 459H433L492 614H457Z"/></g></svg>