<svg xmlns="http://www.w3.org/2000/svg" viewBox="-6.00 4.00 632.00 68.00" width="632" height="68"><g fill="#141210"><path d="M 5.60 33.38 L 565.12 31.00 L 565.12 45.00 L 5.60 42.62 Z M 620.00 38.00 C 598.72 33.66, 579.68 25.41, 564.00 16.30 L 564.00 59.70 C 579.68 50.59, 598.72 42.34, 620.00 38.00 Z M 0.00 19.10 L 7.00 19.10 L 7.00 56.90 L 0.00 56.90 Z M 39.20 15.60 C 24.57 25.68, 17.92 33.52, 12.60 38.00 L 17.89 38.00 C 20.58 33.07, 27.23 25.01, 42.14 15.60 Z M 39.20 60.40 C 24.57 50.32, 17.92 42.48, 12.60 38.00 L 17.89 38.00 C 20.58 42.93, 27.23 50.99, 42.14 60.40 Z M 60.20 15.60 C 45.57 25.68, 38.92 33.52, 33.60 38.00 L 38.89 38.00 C 41.58 33.07, 48.23 25.01, 63.14 15.60 Z M 60.20 60.40 C 45.57 50.32, 38.92 42.48, 33.60 38.00 L 38.89 38.00 C 41.58 42.93, 48.23 50.99, 63.14 60.40 Z"/></g></svg>